<?xml version="1.0" encoding="UTF-8"?>
<svg version="1.1" xmlns="http://www.w3.org/2000/svg" width="1080" height="1080">
<path d="M0 0 C356.4 0 712.8 0 1080 0 C1080 356.4 1080 712.8 1080 1080 C723.6 1080 367.2 1080 0 1080 C0 723.6 0 367.2 0 0 Z " fill="#FEFEFE" transform="translate(0,0)"/>
<path d="M0 0 C8.56096472 2.90516492 15.08941973 9.62412002 19.21728516 17.51074219 C24.02321097 27.38111592 25.89770436 36.61367656 23.09375 47.52734375 C18.5348092 60.04981897 11.0845634 68.73266561 -0.64453125 75.03125 C-4.42735068 76.58703643 -7.93056172 76.80621722 -12 77 C-11.96690258 79.25062454 -11.89742124 81.50073465 -11.8125 83.75 C-11.76029297 85.62945312 -11.76029297 85.62945312 -11.70703125 87.546875 C-11.31223885 91.15134713 -11.31223885 91.15134713 -8.53125 93.34375 C-7.6959375 93.8903125 -6.860625 94.436875 -6 95 C-3.24183874 98.67754834 -3.78987041 102.58727852 -4 107 C-4.495 108.485 -4.495 108.485 -5 110 C-4.10861328 110.185625 -4.10861328 110.185625 -3.19921875 110.375 C8.33104166 113.24411612 17.39807028 120.61473447 23.62109375 130.6015625 C29.75149297 141.27463164 30.3587372 150.88110868 30.60388184 162.93606567 C30.64345219 164.5709197 30.68368343 166.20575784 30.72451639 167.84058082 C30.83361707 172.32430873 30.93012523 176.80822893 31.02371979 181.29230428 C31.08452374 184.16266858 31.14876032 187.03293667 31.21405792 189.90320206 C32.04126567 226.36948259 32.5454767 262.84037167 32.92496261 299.31384868 C32.98716307 305.29079612 33.05150253 311.26771879 33.1171875 317.24462891 C33.13022126 318.4341485 33.14325502 319.62366809 33.15668374 320.84923373 C33.37235755 340.00974334 33.78497896 359.16096693 34.27452201 378.31621791 C34.7748686 398.06211989 35.06310414 417.80324533 35.16211939 437.55527008 C35.22329364 448.6171047 35.37532022 459.66057295 35.77055359 470.7159462 C38.38960221 546.15241475 38.38960221 546.15241475 14.09601641 572.66859853 C3.25385394 584.07956435 -8.95670611 594.07593401 -21.74540091 603.21746719 C-24.20567906 604.97412236 -24.20567906 604.97412236 -26 608 C-26.45236819 613.60936552 -26.31198085 616.31611076 -23 621 C-21.02670091 623.21883476 -18.93577372 625.30029294 -16.8125 627.375 C-16.23024658 627.95080811 -15.64799316 628.52661621 -15.0480957 629.11987305 C-11.42522746 632.67837944 -7.71827186 636.09514536 -3.83984375 639.375 C-1.02311385 641.86281239 1.55214436 644.57859809 4.140625 647.30078125 C6.92582892 649.84608315 9.14009672 650.8878387 12.875 651.375 C19.09887738 650.62813471 23.18251751 646.03366586 27.375 641.6875 C30.39460043 638.56546475 33.42134158 635.60313957 36.7199707 632.77783203 C40.80846817 629.21662789 44.64972936 625.46312927 48.45703125 621.60546875 C49.12667404 620.93203934 49.79631683 620.25860992 50.48625183 619.56477356 C52.59748044 617.44146009 54.70539267 615.31490283 56.8125 613.1875 C59.60779839 610.36561288 62.40639428 607.54705639 65.20703125 604.73046875 C65.84453812 604.08466354 66.48204498 603.43885834 67.13887024 602.77348328 C67.73346542 602.17558487 68.32806061 601.57768646 68.94067383 600.96166992 C69.46059402 600.43651291 69.98051422 599.9113559 70.51618958 599.37028503 C74.4069616 595.7771935 76.96447617 595.75092063 82.11584759 595.75390434 C82.84868655 595.75159665 83.58152552 595.74928897 84.33657172 595.74691135 C86.81152227 595.7415845 89.28621668 595.75061756 91.76115417 595.75949097 C93.54565772 595.75861945 95.33016102 595.75686946 97.11466295 595.75431263 C102.03339729 595.74982454 106.95204511 595.7578628 111.87076843 595.76786876 C117.16933374 595.77647997 122.4678939 595.77358475 127.76646423 595.77206421 C136.95159759 595.77101388 146.13670261 595.77730592 155.32182884 595.78853989 C168.6020893 595.8047719 181.88233602 595.81000053 195.16260532 595.81251587 C216.70728828 595.81689659 238.25195612 595.8302159 259.79663086 595.84912109 C280.72924728 595.86747015 301.66185959 595.88163142 322.59448242 595.89013672 C324.5288733 595.89092489 324.5288733 595.89092489 326.50234278 595.89172898 C332.97164964 595.894339 339.44095652 595.89686643 345.91026342 595.89935279 C399.60685273 595.92009702 453.30342563 595.95533279 507 596 C507.45028564 595.06184448 507.45028564 595.06184448 507.90966797 594.10473633 C509.07546684 591.85432162 510.31504375 590.45115504 512.125 588.6875 C512.66382813 588.15511719 513.20265625 587.62273438 513.7578125 587.07421875 C515.67566788 585.30003547 517.62915938 583.59670256 519.61010742 581.89428711 C524.08712987 577.98093652 528.29202002 573.83523015 532.48046875 569.6171875 C533.25634842 568.83989288 534.03222809 568.06259827 534.83161926 567.26174927 C537.28596156 564.80186104 539.73679082 562.33850725 542.1875 559.875 C543.84286545 558.21461092 545.4984624 556.55445259 547.15429688 554.89453125 C550.80029215 551.23877055 554.44407979 547.58082623 558.08586121 543.92086792 C560 542 560 542 562.58090347 539.79582596 C565.55053593 536.36372831 565.62361557 534.82697215 565.61968327 530.34591675 C565.62594247 529.68726492 565.63220168 529.02861309 565.63865057 528.35000211 C565.65357273 526.13880674 565.63282481 523.92939153 565.61231995 521.71826172 C565.61576643 520.11865805 565.62141824 518.51905787 565.62908787 516.91946888 C565.64385508 512.52044369 565.62751253 508.12199484 565.60623491 503.7230165 C565.5887659 498.9797822 565.60016654 494.23660965 565.60824585 489.49336243 C565.6184595 481.27133953 565.61083214 473.04948852 565.59158516 464.82748413 C565.56410113 452.92566862 565.56792602 441.0240196 565.58017098 429.12218606 C565.59957584 409.79416783 565.59961653 390.46620438 565.5847168 371.13818359 C565.58383066 369.98107199 565.58294453 368.82396039 565.58203154 367.6317848 C565.57839789 362.94392215 565.57468052 358.25605958 565.57086498 353.56819707 C565.5604131 340.68039419 565.55216071 327.79259062 565.5456543 314.90478516 C565.54506606 313.75150774 565.54447783 312.59823031 565.54387177 311.41000509 C565.53458473 292.16453 565.54108054 272.91908764 565.55796474 253.67361832 C565.56754623 241.80635356 565.56242025 229.93926497 565.53819703 218.07202011 C565.52241975 209.93395947 565.52063234 201.79597374 565.52973027 193.65790313 C565.53444796 188.96564888 565.53259944 184.27363645 565.51309395 179.58141518 C565.49530267 175.27918466 565.49613967 170.97736041 565.51127302 166.67512345 C565.51348336 165.12524793 565.50901891 163.57534413 565.49690635 162.02551436 C565.3838631 146.64732763 568.5023595 133.41277102 579.03125 121.75 C584.1640542 116.8403612 592.58295234 110 600 110 C599.95359375 109.27554688 599.9071875 108.55109375 599.859375 107.8046875 C599.6292962 101.64186241 599.68164139 97.79817623 604 93 C604.70125 92.58105469 605.4025 92.16210938 606.125 91.73046875 C608.30414787 90.08871176 608.30414787 90.08871176 608.390625 87.08203125 C608.34421875 86.00308594 608.2978125 84.92414063 608.25 83.8125 C608.21390625 82.72582031 608.1778125 81.63914062 608.140625 80.51953125 C608.09421875 79.68808594 608.0478125 78.85664063 608 78 C607.39414062 77.85304688 606.78828125 77.70609375 606.1640625 77.5546875 C594.92605241 74.54635865 584.64386349 68.63342447 578.46484375 58.4765625 C572.96290758 47.79350277 571.15496044 37.21311299 573.8046875 25.41796875 C577.66380016 14.19992746 585.29053925 6.50824889 595 0 C595.66 0.33 596.32 0.66 597 1 C596.278125 1.66 595.55625 2.32 594.8125 3 C588.87890995 8.91668523 585.86369748 15.19890743 585.625 23.5625 C585.70737069 31.55245661 587.48383687 37.03285073 592.796875 43.02734375 C599.19543574 49.08038221 605.60167578 52.17850874 614.4375 52.5 C622.76658979 52.20843326 630.25633382 49.74816898 636.39453125 43.9453125 C642.06169296 37.07853262 644.97209082 29.72847021 644.44921875 20.81640625 C643.11987189 12.48197942 638.76558056 6.94373052 633 1 C638.10239062 1 641.33729779 4.69076988 645 8 C653.75158264 17.39984802 657.36691638 27.13543168 657.2109375 39.87890625 C656.46158032 50.96661716 651.15757912 60.31332555 643.1875 67.875 C635.91086351 74.04053332 629.44709821 76.40018424 620 77 C619.79636063 86.15345599 619.79636063 86.15345599 623.4375 94.125 C624.283125 94.74375 625.12875 95.3625 626 96 C628.14018375 99.23499722 628.12361788 101.46050408 627.625 105.25 C627.45871094 106.58804688 627.45871094 106.58804688 627.2890625 107.953125 C627.19367187 108.62859375 627.09828125 109.3040625 627 110 C627.54527344 110.14695312 628.09054687 110.29390625 628.65234375 110.4453125 C634.91999737 112.30953768 639.74434082 115.15615515 645 119 C645.86625 119.5775 646.7325 120.155 647.625 120.75 C656.34476279 129.01082791 661.09645926 139.39829224 661.49663544 151.36951542 C661.52990607 154.22944125 661.51316956 157.08756024 661.49206543 159.94752502 C661.4950807 161.54619359 661.4998621 163.14485962 661.50624418 164.74351829 C661.51869484 169.11190033 661.50649876 173.47991214 661.49016929 177.84826839 C661.47695301 182.56884104 661.48697179 187.28937124 661.49427795 192.00994873 C661.50394299 200.18273719 661.49951171 208.35541888 661.4858551 216.52820015 C661.46646328 228.3554362 661.4729446 240.18255264 661.48642892 252.00979184 C661.5079959 271.21478575 661.51472703 290.41975138 661.50927734 309.62475586 C661.50895671 310.77328015 661.50863608 311.92180445 661.50830573 313.10513251 C661.50593253 321.25758849 661.50302791 329.41004424 661.5 337.5625 C661.49654074 346.87687165 661.49332226 356.1912433 661.49072266 365.50561523 C661.49023439 367.22675018 661.49023439 367.22675018 661.48973626 368.98265553 C661.48479314 388.11869922 661.49547399 407.25470367 661.51729441 426.39073509 C661.52998753 438.18776669 661.52855016 449.98463652 661.50884354 461.78165936 C661.49623267 469.86358048 661.49770118 477.94541958 661.51021707 486.0273406 C661.51692649 490.6888816 661.51704866 495.35018307 661.4996357 500.01170158 C661.48378596 504.28208735 661.48641658 508.55205515 661.50348574 512.82243251 C661.50639541 514.36399685 661.50258477 515.90559227 661.49122757 517.44711751 C661.42218668 527.44941418 662.08350855 535.84750279 668.30760193 544.03585815 C669.57737633 545.29017136 669.57737633 545.29017136 670.87280273 546.56982422 C671.34328033 547.04278427 671.81375793 547.51574432 672.29849243 548.0030365 C673.82959898 549.53504806 675.38077042 551.04472036 676.93359375 552.5546875 C678.01573408 553.62815278 679.09660963 554.70289442 680.17628479 555.77883911 C683.00349435 558.5889363 685.84865688 561.38015087 688.69775391 564.16802979 C691.01751745 566.44409023 693.32412761 568.73322879 695.63017178 571.02317619 C698.3937639 573.76711406 701.16271939 576.50560524 703.93359375 579.2421875 C704.45678129 579.75894924 704.97996883 580.27571098 705.51901054 580.80813217 C707.00915087 582.27714357 708.50278398 583.7424984 709.99780273 585.20654297 C710.84511459 586.03797821 711.69242645 586.86941345 712.56541443 587.7260437 C714.95227495 589.95542376 717.45051778 591.96155532 720 594 C723.85758979 598.3788857 724.64637861 601.8193466 724.375 607.484375 C722.64047774 619.12012848 712.17817045 626.01221711 703.48681641 632.72192383 C699.39748809 635.87969167 695.42060023 639.13554306 691.5 642.5 C687.16286539 646.21285506 682.75649398 649.80716535 678.25 653.3125 C672.97255292 657.41882406 667.77940846 661.61525502 662.625 665.875 C661.91206787 666.4628125 661.19913574 667.050625 660.46459961 667.65625 C656.91890225 670.58146032 653.38180247 673.51632297 649.85546875 676.46484375 C625.58564723 696.63194439 625.58564723 696.63194439 614 696 C613.34 695.34 612.68 694.68 612 694 C612.08835554 690.50112065 612.84599469 689.16835027 615.22265625 686.5703125 C616.15980469 685.76335938 617.09695313 684.95640625 618.0625 684.125 C618.56273682 683.68792725 619.06297363 683.25085449 619.57836914 682.80053711 C621.04334505 681.52340873 622.52143124 680.26136661 624 679 C625.31395018 677.8558299 626.62663242 676.71020052 627.9375 675.5625 C628.56527344 675.01722656 629.19304688 674.47195313 629.83984375 673.91015625 C633.1283338 671.00225094 636.3487188 668.02046641 639.57788086 665.04711914 C642.3547637 662.49459547 645.14972015 659.97024254 648 657.5 C656.8505901 649.78041837 665.34988168 641.76596396 673.68399048 633.49224854 C675.10833727 632.07903251 676.53693382 630.6701039 677.96557617 629.26123047 C678.84576416 628.38225098 679.72595215 627.50327148 680.6328125 626.59765625 C681.42574707 625.80883057 682.21868164 625.02000488 683.03564453 624.20727539 C686.58573804 620.21816336 687.67022677 616.76537607 687.48144531 611.48120117 C686.90556596 608.51331993 685.95499614 607.33580428 683.91796875 605.12890625 C683.27915771 604.43651855 682.64034668 603.74413086 681.98217773 603.03076172 C678.99881546 599.97427601 675.90237168 597.06814259 672.75 594.1875 C665.22647689 587.19321783 657.86474861 580.04151171 650.57336426 572.80654907 C649.36737845 571.61168495 648.15867577 570.41955615 646.94714355 569.23031616 C635.36195861 557.84845374 627.7594842 548.67581257 627.60820791 531.80698226 C627.60511035 529.60349047 627.61655961 527.40032858 627.62818909 525.1968689 C627.62561198 523.58954033 627.6217087 521.98221344 627.6165995 520.37489092 C627.60635263 515.97345683 627.61461067 511.57222405 627.62589633 507.17079973 C627.63476507 502.4182138 627.62624211 497.6656559 627.61968994 492.91307068 C627.6105414 484.68241941 627.611856 476.45182393 627.61987495 468.22117233 C627.63111158 456.31347079 627.62206133 444.40584864 627.60731315 432.498154 C627.58355066 413.16771601 627.57017697 393.83728782 627.56616211 374.50683594 C627.56591724 373.35041248 627.56567237 372.19398902 627.56542008 371.00252242 C627.56287322 358.09557384 627.56230794 345.18862601 627.56335449 332.28167725 C627.56368753 327.59859212 627.56397292 322.915507 627.56420898 318.23242188 C627.56427177 317.07680293 627.56433456 315.92118398 627.56439925 314.73054628 C627.56500382 295.4691448 627.55013496 276.20778861 627.52337593 256.94640601 C627.50756065 245.06659162 627.50532347 233.18692331 627.52050995 221.30710734 C627.52996373 213.17098607 627.52523709 205.03495298 627.50929613 196.89884208 C627.50058779 192.2032625 627.49849522 187.50791711 627.51382256 182.81234932 C627.52774074 178.51427737 627.52331882 174.21662975 627.50430154 169.91858096 C627.50068736 168.36355455 627.50384599 166.8084946 627.51445121 165.25350015 C627.75845586 154.41397593 627.75845586 154.41397593 623 145 C619.43767148 142.34896483 616.76631299 141.78206195 612.4375 142.0625 C608.32977411 142.69871344 605.90346277 143.92056978 603 147 C600.76208588 150.48187368 600.74498959 153.40859238 600.73435116 157.49814987 C600.72994629 158.15208072 600.72554143 158.80601157 600.72100309 159.4797585 C600.70864992 161.68032252 600.7105586 163.88064313 600.71238708 166.08123779 C600.70650437 167.67116471 600.69976556 169.26108865 600.69224221 170.85100865 C600.67414574 175.22754295 600.66864544 179.60401703 600.66525543 183.98058414 C600.65950309 188.69784151 600.64237801 193.41506008 600.62690735 198.1322937 C600.59213798 209.52711891 600.57656742 220.92194095 600.56278405 232.31680763 C600.55582482 237.68129255 600.54666766 243.0457736 600.53767586 248.41025543 C600.50847163 266.23965748 600.48367724 284.06905574 600.47305202 301.89847946 C600.47236133 303.03982442 600.47167064 304.18116939 600.47095901 305.35710056 C600.470267 306.50119441 600.46957498 307.64528826 600.468862 308.82405162 C600.46745 311.14246671 600.46602919 313.46088179 600.46459961 315.77929688 C600.46389444 316.92931369 600.46318927 318.0793305 600.46246273 319.26419631 C600.4502104 337.90162916 600.40741157 356.53885869 600.35165941 375.17620715 C600.29490036 394.30522825 600.26440341 413.4341465 600.26003987 432.56325269 C600.25695611 443.30588786 600.24242304 454.04824054 600.19875908 464.79079437 C600.16168509 473.93782152 600.14846211 483.08448969 600.16646396 492.23158118 C600.17492593 496.89909052 600.17203343 501.5658666 600.13864517 506.23328018 C600.10834209 510.50720612 600.11040937 514.77985498 600.13813318 519.05378714 C600.14247735 520.59890122 600.13500784 522.14410369 600.11446016 523.68908724 C599.88045514 533.44801081 599.88045514 533.44801081 604.40525913 541.81782913 C605.57583923 542.90900859 606.77150153 543.97446508 608 545 C609.17369141 546.23943359 609.17369141 546.23943359 610.37109375 547.50390625 C611.05300781 548.18324219 611.73492188 548.86257813 612.4375 549.5625 C613.45650391 550.58537109 613.45650391 550.58537109 614.49609375 551.62890625 C616.50046628 553.5269626 618.53287442 555.33224836 620.62426758 557.13085938 C625.08125266 561.02308831 629.31130352 565.11535637 633.515625 569.27734375 C634.29387634 570.04752335 635.07212769 570.81770294 635.8739624 571.61122131 C637.50564923 573.22917248 639.13585932 574.84861417 640.76464844 576.46948242 C642.42426616 578.11752521 644.0883553 579.76107712 645.75683594 581.40014648 C648.18634015 583.78693152 650.60227397 586.18673953 653.015625 588.58984375 C653.75733948 589.31405014 654.49905396 590.03825653 655.26324463 590.78440857 C661.37370644 596.92060601 666.03914498 603.59933269 666.3125 612.5625 C666.08766208 623.6598572 660.49335404 630.61390271 652.90917969 638.17626953 C650.44263631 640.53241774 647.91568424 642.82035545 645.390625 645.11328125 C638.96547254 650.95342407 632.84728872 657.07099905 626.75 663.25 C614.68806592 675.4713429 614.68806592 675.4713429 608.67260742 680.52172852 C606.83982724 682.1415627 605.20880893 683.87993529 603.5625 685.6875 C598.15792208 691.20364031 590.55119874 694.04340816 582.875 694.3125 C572.13008556 694.10147058 565.31669009 688.29262204 558 681 C557.29875 680.30132813 556.5975 679.60265625 555.875 678.8828125 C554.63388162 677.636846 553.40052475 676.38303258 552.1796875 675.1171875 C550.33755878 673.32787967 548.45954399 671.67338409 546.5078125 670.0078125 C540.14956607 664.4842053 534.33130633 658.38745289 528.41796875 652.39746094 C520.31009997 644.19294695 520.31009997 644.19294695 511.71875 636.5 C510 635 510 635 508.32694757 632.93945611 C505.15421872 630.29506118 503.15161771 630.48854674 499.05008888 630.46870232 C498.3473044 630.45989259 497.64451992 630.45108286 496.92043895 630.44200617 C494.55343629 630.41728265 492.18733776 630.42111792 489.82022095 630.42477417 C488.1108172 630.41300947 486.40142452 630.39953203 484.69204652 630.38448441 C479.98502389 630.34827994 475.27822521 630.3372897 470.57108045 630.33051085 C465.49782006 630.31900826 460.42470405 630.28475766 455.35153198 630.2538147 C443.09352068 630.1842567 430.83552105 630.15312819 418.57735544 630.12556809 C412.80420018 630.11164826 407.03105928 630.09333381 401.2579155 630.07535172 C382.06458273 630.01693281 362.87126403 629.9673506 343.67785072 629.94610405 C342.4489868 629.94472266 341.22012287 629.94334127 339.95402064 629.94191802 C338.72221111 629.94053399 337.49040158 629.93914996 336.22126448 629.93772399 C333.72514635 629.93490001 331.22902824 629.93205839 328.73291016 629.92919922 C326.87566807 629.92708371 326.87566807 629.92708371 324.98090594 629.92492546 C304.93109585 629.90043978 284.88204328 629.81488833 264.83254738 629.70331882 C244.2457653 629.58969048 223.65936582 629.52879863 203.07226694 629.52007973 C191.51421425 629.5139195 179.957213 629.48498801 168.39946365 629.39751816 C158.55405501 629.32321749 148.70998217 629.29700253 138.86433335 629.33292793 C133.84293228 629.34980837 128.82425674 629.34432103 123.80321503 629.27729034 C119.19845764 629.21636326 114.59842683 629.221062 109.99364023 629.27626635 C108.33532643 629.28490587 106.6766778 629.27025057 105.0188566 629.22892033 C96.27184731 629.02462858 90.5343915 629.74419514 84.01608511 635.95071704 C81.70263629 638.36520863 79.50948591 640.8573176 77.36455087 643.4220164 C75.68981461 645.35870225 73.85524471 647.00599434 71.875 648.625 C66.25497187 653.39604516 61.17522618 658.75768756 56 664 C43.85758963 676.29981198 43.85758963 676.29981198 37.60058594 681.63134766 C36.30522325 682.73900526 35.05498341 683.89928999 33.8203125 685.07421875 C28.04873512 690.56652625 21.59159348 694.09499869 13.5 694.4375 C11.99591393 694.34267146 10.49434185 694.19547329 9 694 C8.22011719 693.90203125 7.44023437 693.8040625 6.63671875 693.703125 C-1.82086903 691.9225802 -7.1559264 685.91588169 -13 680 C-14.0489911 678.95133447 -15.09847065 677.90315731 -16.1484375 676.85546875 C-18.11724073 674.88941269 -20.07012512 672.91134098 -22.015625 670.921875 C-24.15103236 668.78065701 -26.37427536 666.79382317 -28.671875 664.828125 C-34.57043194 659.72312096 -39.96361469 654.09400876 -45.43652344 648.54296875 C-50.59871813 643.31382409 -55.76288679 638.16191972 -61.40478516 633.44360352 C-66.45378736 628.87446516 -68.64029386 623.11284156 -69.40625 616.484375 C-69.45265625 614.63585937 -69.45265625 614.63585937 -69.5 612.75 C-69.5515625 611.52796875 -69.603125 610.3059375 -69.65625 609.046875 C-68.53431212 597.10667326 -56.63959144 588.14746773 -48.625 580.3125 C-47.32204424 579.0210619 -46.01995448 577.72874947 -44.71875 576.43554688 C-43.45128998 575.18151381 -42.18308528 573.92823286 -40.9140625 572.67578125 C-40.05272202 571.82552116 -40.05272202 571.82552116 -39.17398071 570.95808411 C-33.32539253 565.24339496 -27.26760309 559.94277636 -20.71104527 555.05206203 C-11.0261356 547.31397259 -4.25679177 540.31272258 -2.83554948 527.73734074 C-2.16141119 519.48291777 -2.31675971 511.2035415 -2.50398576 502.93243921 C-2.58736964 498.21068532 -2.54753569 493.48963451 -2.52372742 488.76742554 C-2.49602573 479.54827837 -2.57866907 470.33335453 -2.6988182 461.11508019 C-2.83399877 450.37230594 -2.85249825 439.63024704 -2.8653741 428.88674497 C-2.89175089 409.72394831 -3.0145325 390.56302875 -3.19604492 371.40112305 C-3.37194651 352.81515527 -3.49213629 334.23004848 -3.54467773 315.64331055 C-3.54793331 314.49625287 -3.5511889 313.34919519 -3.55454313 312.16737819 C-3.5674866 307.55640973 -3.58026097 302.94544084 -3.59275844 298.33447114 C-3.64796211 278.45939542 -3.74759941 258.58450619 -3.85421243 238.70964894 C-3.87114475 235.49422232 -3.88710584 232.27879208 -3.90286136 229.0633595 C-3.95903465 217.81651863 -4.02891277 206.57000314 -4.13621735 195.32352192 C-4.18054469 190.67464371 -4.21899852 186.02593874 -4.24055481 181.376894 C-4.26063412 177.1230013 -4.29924059 172.86969749 -4.35287154 168.61609911 C-4.36916292 167.07631059 -4.37881572 165.53643479 -4.38121288 163.99656195 C-4.38556415 161.90488789 -4.41427284 159.81490585 -4.44914913 157.72354984 C-4.4639461 155.9806214 -4.4639461 155.9806214 -4.47904199 154.20248228 C-5.2965818 149.17682436 -7.59685181 146.01157195 -11.6875 143.0625 C-16.08081753 141.65332268 -19.57866168 141.67033552 -24 143 C-28.23677817 146.15504757 -29.63248622 148.9934155 -31 154 C-31.29479553 157.26207105 -31.29479553 157.26207105 -31.24774647 160.74589634 C-31.25149359 161.73053973 -31.25149359 161.73053973 -31.25531641 162.73507491 C-31.2612671 164.93217079 -31.25300357 167.12897973 -31.24482727 169.32606506 C-31.24624999 170.91827714 -31.24856311 172.51048863 -31.25168961 174.10269827 C-31.25779011 178.47648569 -31.25154746 182.85018231 -31.243379 187.22396314 C-31.23679039 191.94194532 -31.24179873 196.65991595 -31.24560547 201.37789917 C-31.25082904 209.5545589 -31.24933324 217.73119493 -31.24382973 225.90785408 C-31.23561498 238.83722495 -31.24684664 251.76654473 -31.2610321 264.69590759 C-31.26563327 269.12073219 -31.27008363 273.54555692 -31.27447033 277.97038174 C-31.27611754 279.62912551 -31.27611754 279.62912551 -31.27779803 281.32137926 C-31.28997174 293.9085054 -31.29752383 306.49563318 -31.3034668 319.08276367 C-31.30401486 320.23332854 -31.30456292 321.38389342 -31.30512758 322.56932389 C-31.31358328 341.20639392 -31.31025054 359.84344949 -31.30431245 378.4805196 C-31.29869167 397.62208401 -31.31224613 416.76357573 -31.34186524 435.90511793 C-31.35939198 447.70719655 -31.36105627 459.50906489 -31.34222009 471.3111425 C-31.33059922 479.40390517 -31.33708679 487.49652619 -31.3576893 495.58927048 C-31.36899004 500.25523862 -31.37222881 504.92084148 -31.35351372 509.5867939 C-31.33651306 513.86503168 -31.34280963 518.14260218 -31.36701228 522.42079943 C-31.37171167 523.96188902 -31.36810837 525.50303317 -31.35498682 527.04407407 C-31.26982414 537.79589742 -32.40942058 548.59082206 -39.34301758 557.33862305 C-40.16439209 558.15886963 -40.9857666 558.97911621 -41.83203125 559.82421875 C-42.29680374 560.2994548 -42.76157623 560.77469086 -43.24043274 561.264328 C-44.25995539 562.30141169 -45.28858332 563.32960811 -46.32525635 564.34954834 C-48.12615379 566.12432394 -49.89705589 567.92583963 -51.66552734 569.73291016 C-54.96799304 573.09807528 -58.29586989 576.43663457 -61.63500977 579.76538086 C-63.69860061 581.82357157 -65.75673675 583.8871098 -67.81445312 585.95117188 C-69.1507209 587.28677934 -70.48729857 588.62207684 -71.82421875 589.95703125 C-72.72765266 590.86350151 -72.72765266 590.86350151 -73.64933777 591.7882843 C-77.39199441 595.51075829 -81.25782229 599.04008056 -85.25813293 602.48442078 C-89.44962923 606.07022542 -89.44962923 606.07022542 -91.375 611.09765625 C-91.70613557 617.29610014 -89.84970472 620.76211265 -85.69018555 625.48823547 C-84.21861365 627.02740795 -82.71925107 628.53204872 -81.203125 630.02734375 C-80.65066101 630.57934952 -80.09819702 631.13135529 -79.5289917 631.7000885 C-78.36479706 632.86127819 -77.19818919 634.02005295 -76.02929688 635.17651367 C-74.26378683 636.92385505 -72.50632364 638.67897711 -70.75 640.43554688 C-65.54106203 645.62796231 -60.31952994 650.74861605 -54.72167969 655.52563477 C-51.90671185 657.93624038 -49.21063866 660.4735023 -46.5 663 C-42.3749997 666.82650781 -38.22133432 670.60459675 -33.96484375 674.28515625 C-31.575678 676.37033272 -29.22632923 678.49727415 -26.875 680.625 C-23.3154386 683.83849293 -19.71560689 686.96884701 -16 690 C-16.375 692.4375 -16.375 692.4375 -17 695 C-20.60575495 696.80287748 -24.2478188 695.96903178 -28 695 C-36.5201333 690.96839118 -43.72941149 684.30742374 -50.9453125 678.3359375 C-54.64063792 675.27961372 -58.39996395 672.31572273 -62.1875 669.375 C-67.27131462 665.41447859 -72.21176768 661.3159144 -77.10620117 657.12451172 C-80.99284971 653.81159253 -84.96769568 650.63345388 -89 647.5 C-94.20801849 643.45100182 -99.2906308 639.28410571 -104.30102539 634.99316406 C-107.79165753 632.00594209 -111.34462557 629.11458907 -114.9375 626.25 C-121.25754313 621.09078112 -127.03550485 616.10493634 -128.35546875 607.75 C-128.6408664 604.21753092 -128.77297142 601.21585111 -126.82511902 598.15196228 C-126.28752457 597.5745076 -125.74993011 596.99705292 -125.19604492 596.40209961 C-124.5575058 595.7138913 -123.91896667 595.02568298 -123.26107788 594.31661987 C-119.20045772 590.15625307 -115.08934429 586.0528495 -110.93715858 581.98425484 C-108.68556057 579.77535129 -106.44380708 577.55656183 -104.20130444 575.33843136 C-100.04451974 571.22706637 -95.88386707 567.119806 -91.70678711 563.02905273 C-88.78295322 560.16489404 -85.87172841 557.28842646 -82.96822166 554.40366936 C-81.86803979 553.31515102 -80.76336025 552.2311574 -79.65395546 551.15204048 C-78.09890555 549.63841899 -76.56049938 548.10949278 -75.0246582 546.57641602 C-74.14864456 545.71452164 -73.27263092 544.85262726 -72.37007141 543.96461487 C-65.5483923 535.43168576 -65.42850597 526.86082076 -65.50120544 516.337677 C-65.49747495 514.74557126 -65.49198264 513.15346885 -65.48488861 511.56137455 C-65.47047768 507.20181405 -65.48078355 502.84261244 -65.49517167 498.48306489 C-65.50630681 493.77538334 -65.49428577 489.06775446 -65.48498535 484.3600769 C-65.47190466 476.2063582 -65.47305216 468.05274206 -65.48357964 459.89902115 C-65.49853223 448.09820717 -65.48859466 436.29751327 -65.47206045 424.49670611 C-65.44560776 405.3339011 -65.4347402 386.17112305 -65.43579102 367.00830078 C-65.43584934 365.86189841 -65.43590766 364.71549603 -65.43596775 363.53435419 C-65.43623359 358.88946466 -65.43655088 354.24457514 -65.43693101 349.59968562 C-65.43789708 336.81727051 -65.43656963 324.03485623 -65.43383789 311.25244141 C-65.433598 310.10804506 -65.43335811 308.96364871 -65.43311094 307.78457369 C-65.42870254 288.69492291 -65.41246204 269.60529715 -65.3886171 250.51566112 C-65.37455511 238.74642996 -65.37165875 226.97729395 -65.38323999 215.20805953 C-65.39056948 207.14247451 -65.3874936 199.07693739 -65.37628155 191.01135696 C-65.37021596 186.35987202 -65.36909972 181.70852117 -65.38115883 177.05704498 C-65.39214277 172.79460535 -65.38925952 168.532403 -65.37561537 164.26997314 C-65.37313001 162.7323711 -65.37566861 161.19475048 -65.38388925 159.6571684 C-65.45204279 146.02314338 -63.82611069 135.69831599 -55 125 C-54.41347656 124.2884375 -53.82695312 123.576875 -53.22265625 122.84375 C-47.85943612 116.94760948 -41.25048961 113.17394894 -34 110 C-33.01 110 -32.02 110 -31 110 C-31.05800781 109.11957031 -31.11601562 108.23914063 -31.17578125 107.33203125 C-31.5394049 97.97131969 -31.5394049 97.97131969 -29.921875 95.05859375 C-28.5625 93.75 -28.5625 93.75 -26 92 C-24.05909174 90.05909174 -24.60080565 86.52706098 -24.4375 83.9375 C-24.31181641 82.00197266 -24.31181641 82.00197266 -24.18359375 80.02734375 C-24.12300781 79.02832031 -24.06242187 78.02929688 -24 77 C-25.258125 76.95875 -26.51625 76.9175 -27.8125 76.875 C-37.6543325 75.7453557 -45.94064086 69.58797019 -52 62 C-53.87948621 59.08967314 -55.48928461 56.11511856 -57 53 C-57.35320312 52.37609375 -57.70640625 51.7521875 -58.0703125 51.109375 C-61.87792861 42.47024601 -61.05852845 30.9498077 -58.0625 22.25 C-54.08575472 13.01223477 -47.38817396 6.35415359 -39 1 C-38.01 1.495 -38.01 1.495 -37 2 C-37.721875 2.61875 -38.44375 3.2375 -39.1875 3.875 C-44.44425736 9.2368925 -47.29197126 15.49282758 -47.5625 23 C-47.13866104 31.69985242 -44.12741534 38.91754625 -38.1015625 45.23828125 C-31.57430194 50.71001826 -24.43094368 52.82312894 -15.98828125 52.41796875 C-7.94180866 51.29251441 -0.23244918 48.44517829 5 42 C9.75770946 34.05809436 11.87131052 27.27323344 11 18 C9.32567924 11.69608147 5.81378829 7.21459937 1.390625 2.53125 C0 1 0 1 0 0 Z " fill="#28AC6D" transform="translate(242,126)"/>
<path d="M0 0 C9.83957357 3.5016276 16.93918843 11.06282213 22 20 C27.55687902 31.79142622 29.12360596 43.71313087 25 56.25 C19.39019466 70.13348471 10.33124915 79.02731149 -3.375 84.9375 C-7.00879658 86.38220349 -10.11326377 87.22265275 -14 88 C-14.33 93.61 -14.66 99.22 -15 105 C-13.68 105.66 -12.36 106.32 -11 107 C-6.16093395 112.39210217 -5.88615246 116.05530007 -6 123 C-5.36312256 122.98428955 -4.72624512 122.9685791 -4.07006836 122.95239258 C16.09654604 122.5250039 35.05679692 124.46984661 54.8125 128.4375 C55.78453369 128.63045654 56.75656738 128.82341309 57.75805664 129.0222168 C63.97665624 130.34098785 70.43407174 131.82880717 76 135 C76.33 135.99 76.66 136.98 77 138 C74.64527263 137.88241834 72.29149901 137.75589893 69.9375 137.625 C68.62652344 137.55539062 67.31554687 137.48578125 65.96484375 137.4140625 C62.06798489 137.15063369 58.26511751 136.58151362 54.40625 135.984375 C43.82397763 134.54106825 33.22678885 134.60553736 22.5625 134.625 C21.49684814 134.62521149 20.43119629 134.62542297 19.33325195 134.62564087 C3.90361101 134.65625524 -10.9960613 135.03474265 -26 139 C-26.73331543 139.18723633 -27.46663086 139.37447266 -28.22216797 139.56738281 C-32.90649623 140.79993272 -37.46391111 142.30039347 -42 144 C-43.06105957 144.39276123 -43.06105957 144.39276123 -44.14355469 144.79345703 C-57.65849288 149.8712039 -69.0147059 156.54197459 -80 166 C-81.01513672 166.87011719 -81.01513672 166.87011719 -82.05078125 167.7578125 C-92.08626003 177.04917762 -98.85475245 189.08779212 -103 202 C-103.36738281 203.05832031 -103.73476563 204.11664063 -104.11328125 205.20703125 C-106.01027171 210.91179892 -107.31101729 216.44795668 -108.11328125 222.41015625 C-108.28255127 223.65031494 -108.45182129 224.89047363 -108.6262207 226.16821289 C-108.74956787 227.10270264 -108.87291504 228.03719238 -109 229 C-101.49735209 229.17152262 -93.99654778 229.27114545 -86.49199963 229.28240681 C-83.00554501 229.28982547 -79.52279711 229.32073032 -76.03735352 229.40795898 C-60.03378931 230.64810938 -60.03378931 230.64810938 -45.83007812 225.1862793 C-42.94345765 222.10248583 -41.048238 218.6752403 -39 215 C-25.25198719 200.35298162 -6.37162109 192.14116876 13 188 C13.68642578 187.84901855 14.37285156 187.69803711 15.08007812 187.54248047 C37.25542317 182.88324546 62.92101017 182.81677142 85 188 C86.22847656 188.2784375 87.45695312 188.556875 88.72265625 188.84375 C97.66497125 191.14122185 105.82505295 194.79978272 114 199 C114.66322266 199.33660645 115.32644531 199.67321289 116.00976562 200.02001953 C138.72005094 211.68544173 156.89060929 229.61130887 165.08984375 254.27880859 C168.13088619 265.09602608 168.52654628 275.32546686 168.35668945 286.52368164 C168.31177419 289.48535966 168.29510838 292.44622326 168.28320312 295.40820312 C168.26980944 297.29167857 168.25489502 299.17514396 168.23828125 301.05859375 C168.23089432 301.9438121 168.22350739 302.82903046 168.21589661 303.74107361 C168.11849618 309.88150382 168.11849618 309.88150382 167 311 C163.83306229 311.09050038 160.68803075 311.11474689 157.52095032 311.09765625 C156.51316928 311.09624413 155.50538823 311.09483202 154.46706837 311.09337711 C151.0617603 311.08762289 147.65651049 311.07492317 144.2512207 311.0625 C141.82061877 311.05735071 139.3900156 311.05276059 136.95941162 311.0486908 C132.39086885 311.04078274 127.82233368 311.03159197 123.2537972 311.0206396 C114.26343925 310.99953736 105.27314013 310.9955531 96.28276062 310.99829102 C95.234376 310.99856464 95.234376 310.99856464 94.16481189 310.99884379 C88.40588596 311.00037531 82.6469603 311.00254574 76.8880346 311.00474477 C71.6951318 311.00665458 66.50222931 311.00789996 61.30932617 311.00830078 C60.19868833 311.00839726 60.19868833 311.00839726 59.06561335 311.00849569 C47.09579688 311.00865132 35.12620403 310.98003963 23.15645704 310.94156575 C10.85946864 310.9027928 -1.4372034 310.89846217 -13.73422557 310.92484093 C-21.31296663 310.93995904 -28.89067288 310.92817019 -36.46928773 310.88120073 C-42.29342557 310.84791539 -48.11671503 310.86232528 -53.94082642 310.89392281 C-56.31993454 310.89944455 -58.69913725 310.88974867 -61.07810402 310.86323357 C-75.48940265 310.71284714 -84.75602172 311.54041552 -96 321 C-98.14667606 322.59171689 -100.32364854 324.13623809 -102.5 325.6875 C-119.86019224 339.00874236 -135.2183008 356.75268436 -139 379 C-139.200213 380.91357427 -139.38155097 382.82919007 -139.546875 384.74609375 C-139.67594238 386.22420532 -139.67594238 386.22420532 -139.80761719 387.73217773 C-139.87110352 388.48055908 -139.93458984 389.22894043 -140 390 C-139.39517288 389.99777939 -138.79034576 389.99555878 -138.16719055 389.99327087 C-131.7570557 389.9708005 -125.34693237 389.95592348 -118.93676758 389.94506836 C-116.55818221 389.94010129 -114.17959979 389.93332537 -111.80102539 389.92456055 C-96.83300228 389.87086644 -81.94316834 390.10941408 -67 391 C-66.99465426 386.96052949 -67.02842622 382.92342045 -67.09765625 378.88452148 C-67.11576598 377.51222472 -67.12339381 376.13974633 -67.12011719 374.76733398 C-66.78555061 367.04244272 -66.78555061 367.04244272 -69.34301758 360.04418945 C-71.11382414 358.53179023 -71.11382414 358.53179023 -74 357 C-75.73595176 354.05642963 -76.00865973 352.41566725 -75.9375 349 C-74.7592611 345.22963552 -72.97554581 343.54010008 -70 341 C-67.57148365 339.78574183 -65.99234207 339.86027324 -63.27832031 339.83886719 C-62.29679993 339.82925964 -61.31527954 339.8196521 -60.30401611 339.80975342 C-58.70720001 339.8033786 -58.70720001 339.8033786 -57.078125 339.796875 C-55.43901154 339.78832489 -55.43901154 339.78832489 -53.76678467 339.77960205 C-51.45000174 339.77014208 -49.1332053 339.76361413 -46.81640625 339.75976562 C-43.27840516 339.75007778 -39.74098922 339.71907046 -36.203125 339.6875 C-33.95312845 339.68096828 -31.70312775 339.67571847 -29.453125 339.671875 C-27.86845428 339.6533548 -27.86845428 339.6533548 -26.25177002 339.63446045 C-19.78682956 339.65397695 -15.05524985 340.14843348 -10.125 344.75 C-8.45513903 348.08972194 -8.49132324 350.3120935 -9 354 C-10.79023785 356.97046873 -12.85004828 359.42502414 -16 361 C-16.33 370.9 -16.66 380.8 -17 391 C3.295 390.505 3.295 390.505 24 390 C24.33 380.43 24.66 370.86 25 361 C23.35 360.34 21.7 359.68 20 359 C17.16262307 355.67342015 16.26581296 352.3841703 16.47267151 347.98568726 C17.33014567 344.75681654 19.19419116 343.28694299 21.74557495 341.24176025 C26.12173982 338.83132412 30.74542394 339.18862673 35.62890625 339.2734375 C36.73676987 339.27244049 37.84463348 339.27144348 38.98606873 339.27041626 C41.32013146 339.27508256 43.65420565 339.29445046 45.98803711 339.32763672 C49.554791 339.37489785 53.11855852 339.36874081 56.68554688 339.35546875 C58.9583511 339.36662138 61.23114278 339.38084058 63.50390625 339.3984375 C65.09785973 339.39570328 65.09785973 339.39570328 66.72401428 339.39291382 C72.76928007 339.50839057 76.42672933 339.9143531 81 344 C83.48386059 347.72579089 83.3804212 349.58711402 83 354 C81.8125 356.8125 81.8125 356.8125 80 359 C78.35 359.66 76.7 360.32 75 361 C75 370.9 75 380.8 75 391 C95.79 390.505 95.79 390.505 117 390 C117.12375 385.483125 117.2475 380.96625 117.375 376.3125 C117.42962402 374.89622314 117.48424805 373.47994629 117.54052734 372.02075195 C117.89096182 365.75501509 117.89096182 365.75501509 115.67504883 360.14575195 C113.86378526 358.69879805 113.86378526 358.69879805 111 357 C109.25407264 352.69138098 109.68704407 348.86062881 111.25 344.5625 C113 342 113 342 116 340 C118.29450989 339.73257446 118.29450989 339.73257446 121.01879883 339.70947266 C122.04028519 339.69671295 123.06177155 339.68395325 124.11421204 339.67080688 C125.21734238 339.66858124 126.32047272 339.66635559 127.45703125 339.6640625 C128.5927507 339.6574057 129.72847015 339.6507489 130.89860535 339.64389038 C133.3035622 339.63375782 135.70854721 339.62907355 138.11352539 339.62939453 C141.78774612 339.62502941 145.46075815 339.58873638 149.13476562 339.55078125 C151.47135006 339.54491162 153.8079402 339.54094321 156.14453125 339.5390625 C157.2415889 339.52469147 158.33864655 339.51032043 159.46894836 339.49551392 C165.60148361 339.53211641 169.3697749 339.81921204 174 344 C175.73145686 347.46291372 175.47737349 351.21370892 175 355 C173.23759159 358.02127155 172.25488284 359.63361085 168.859375 360.625 C168.24578125 360.74875 167.6321875 360.8725 167 361 C167.00222061 361.86221664 167.00444122 362.72443329 167.00672913 363.61277771 C167.02672995 371.72106036 167.04197306 379.82933477 167.05181217 387.93763638 C167.05704051 392.10662828 167.06413726 396.27559987 167.07543945 400.44458008 C167.08627008 404.46457686 167.09227721 408.48455405 167.09487724 412.50456429 C167.09673118 414.04162975 167.10035119 415.57869409 167.10573006 417.11575127 C167.11294284 419.26135487 167.11399084 421.40687655 167.11352539 423.55249023 C167.115746 424.77604721 167.11796661 425.99960419 167.12025452 427.26023865 C167 430 167 430 166 431 C159.15801908 431.85524761 159.15801908 431.85524761 156.20126343 429.67155457 C155.57458771 429.12662857 154.94791199 428.58170258 154.30224609 428.02026367 C147.48789564 423.31422102 139.60518918 424.15602043 131.6640625 424.23828125 C129.97691578 424.23677598 128.28976979 424.23333898 126.60263062 424.22807312 C123.07717863 424.22375636 119.55264597 424.24046325 116.02734375 424.27270508 C111.53626959 424.31242393 107.04692397 424.30319814 102.55579567 424.27847004 C99.07412875 424.26419947 95.59285671 424.27444341 92.1112175 424.29198265 C90.45683107 424.29778276 88.80240333 424.29660454 87.14802933 424.28795815 C77.36524332 424.25385654 69.7144738 425.11238579 61 430 C51.45646297 433.18117901 40.861707 431.19912899 32 427 C31.16557373 426.49130371 30.33114746 425.98260742 29.47143555 425.45849609 C24.88629215 423.53208449 20.91777987 423.51405138 15.9921875 423.49609375 C15.03031525 423.48610855 14.06844299 423.47612335 13.0774231 423.46583557 C11.04514853 423.450685 9.01279973 423.44360883 6.98046875 423.4440918 C3.90496194 423.4375636 0.83274407 423.38314246 -2.2421875 423.32617188 C-13.4604107 423.23187139 -21.43436439 423.70798166 -31 430 C-40.33101415 433.11033805 -49.94519204 431.33708241 -58.609375 427.2890625 C-61 426 -61 426 -64 424 C-66.26287414 423.69360521 -66.26287414 423.69360521 -68.81117249 423.73257446 C-69.80212921 423.72404449 -70.79308594 423.71551453 -71.81407166 423.70672607 C-73.44343407 423.70808563 -73.44343407 423.70808563 -75.10571289 423.70947266 C-76.25076294 423.70275543 -77.39581299 423.69603821 -78.57556152 423.68911743 C-82.37463686 423.67006561 -86.17353606 423.66620896 -89.97265625 423.6640625 C-92.61242242 423.65763732 -95.25218786 423.65090917 -97.89195251 423.64389038 C-103.43440904 423.63109277 -108.9768178 423.62812579 -114.51928711 423.62939453 C-120.9068712 423.63059286 -127.29411571 423.60955519 -133.68161398 423.5779072 C-139.17649348 423.55166033 -144.67126277 423.5410309 -150.16620439 423.54230535 C-153.44296818 423.54281299 -156.71936495 423.53537647 -159.9960804 423.51594925 C-163.66051101 423.49626613 -167.32407971 423.50213858 -170.98852539 423.51416016 C-172.06059738 423.50292114 -173.13266937 423.49168213 -174.23722839 423.48010254 C-183.37971405 423.55598702 -191.30847223 425.67741632 -198.0625 432.125 C-198.79597656 432.80820312 -199.52945312 433.49140625 -200.28515625 434.1953125 C-202.07115649 435.89905011 -202.07115649 435.89905011 -203 438 C-203.66 438 -204.32 438 -205 438 C-206.08003071 401.21895402 -195.37964603 367.25590335 -170.78125 339.49609375 C-162.82940227 331.21291904 -153.68858223 324.77042062 -143.75 319.125 C-142.7763147 318.57102539 -142.7763147 318.57102539 -141.78295898 318.00585938 C-137.3242437 315.54759574 -132.77983701 313.74059511 -128 312 C-136.38850469 311.88404443 -144.77667344 311.7952546 -153.16578197 311.74093914 C-157.06141191 311.71486747 -160.95649273 311.67951573 -164.85180664 311.62280273 C-168.61252026 311.56839336 -172.37270644 311.53856117 -176.13378334 311.52561378 C-177.56714492 311.51638965 -179.00047828 311.49837629 -180.43361473 311.47134972 C-182.44398106 311.43495241 -184.45488047 311.43295673 -186.46557617 311.43237305 C-187.60919113 311.42126999 -188.75280609 311.41016693 -189.93107605 311.39872742 C-193.92978136 312.18216549 -195.35926578 313.98944265 -198 317 C-201.18070237 318.59035119 -204.58330451 318.78937448 -208 318 C-210.49630115 316.38336845 -212.17220893 315.26336616 -214 313 C-214.58887218 309.91527514 -214.79996428 307.63093371 -214.7265625 304.55859375 C-214.72755951 303.75390152 -214.72855652 302.94920929 -214.72958374 302.12013245 C-214.72491699 300.42479537 -214.70554525 298.72944257 -214.67236328 297.03442383 C-214.62507497 294.44161072 -214.63125707 291.85290182 -214.64453125 289.25976562 C-214.63337919 287.60935053 -214.61916032 285.9589527 -214.6015625 284.30859375 C-214.60338531 283.53559433 -214.60520813 282.76259491 -214.60708618 281.96617126 C-214.51388282 278.42496036 -214.28448981 276.37778764 -212.1262207 273.51171875 C-208.16116332 270.69260802 -203.65069949 271.42124629 -199 272 C-195.875 273.3125 -195.875 273.3125 -194 275 C-193.67 275.99 -193.34 276.98 -193 278 C-36.085 277.505 -36.085 277.505 124 277 C124 260.00255966 119.3658613 243.374802 107.19140625 230.890625 C100.27346638 224.92220629 92.57636407 220.99337382 84 218 C83.2265625 217.71253906 82.453125 217.42507813 81.65625 217.12890625 C72.41719854 213.82246489 63.21767987 213.78674559 53.49365234 213.75976562 C51.40030286 213.75011663 49.30796165 213.71904216 47.21484375 213.6875 C28.59056469 213.54082077 11.93554339 217.87489474 -1.8984375 230.76953125 C-9.55470604 238.70998443 -13.04303661 249.35473672 -16.140625 259.734375 C-17 262 -17 262 -19 263 C-22.03164159 263.09895714 -25.04033119 263.13624359 -28.07226562 263.12939453 C-29.48841911 263.13202301 -29.48841911 263.13202301 -30.93318176 263.13470459 C-34.0908894 263.13914022 -37.24854166 263.13616804 -40.40625 263.1328125 C-42.63773611 263.13348771 -44.86922215 263.13445953 -47.10070801 263.13571167 C-51.82219124 263.13719302 -56.54365567 263.13502982 -61.26513672 263.13037109 C-67.15391126 263.124829 -73.04263904 263.12793813 -78.93141174 263.13382339 C-110.63243746 263.16044729 -142.3083652 262.76738918 -174 262 C-172.93802396 253.21285807 -172.93802396 253.21285807 -171.765625 249.046875 C-171.52416748 248.18690918 -171.28270996 247.32694336 -171.03393555 246.44091797 C-170.77523682 245.55291504 -170.51653809 244.66491211 -170.25 243.75 C-169.97905518 242.81687988 -169.70811035 241.88375977 -169.42895508 240.92236328 C-167.39158628 234.0473655 -165.02961611 227.504764 -162 221 C-161.34581989 219.52758101 -160.69222446 218.05490217 -160.0390625 216.58203125 C-153.47878864 202.02734294 -145.37945147 189.15354239 -135 177 C-134.29230469 176.16984375 -133.58460938 175.3396875 -132.85546875 174.484375 C-108.52812073 146.70603715 -76.71604913 133.09460027 -41.35986328 125.5690918 C-38.99958008 125.09356773 -38.99958008 125.09356773 -37 124 C-37.04640625 123.34773438 -37.0928125 122.69546875 -37.140625 122.0234375 C-37.3856591 116.09011168 -37.08883707 112.64138262 -33 108 C-32.1440625 107.46632813 -31.288125 106.93265625 -30.40625 106.3828125 C-26.93140466 102.94181305 -27.22269684 99.96637621 -27.1875 95.25 C-27.16236328 94.45722656 -27.13722656 93.66445313 -27.11132812 92.84765625 C-27.0526327 90.89896805 -27.0234102 88.94943141 -27 87 C-28.2375 86.95875 -29.475 86.9175 -30.75 86.875 C-41.63333348 85.6106881 -50.7973595 78.92539681 -58 71 C-67.22375028 59.09614115 -69.72367536 46.78192232 -68 32 C-65.05626398 19.49239275 -57.33520417 9.48872465 -47 2 C-44.73046875 1.28125 -44.73046875 1.28125 -43 1 C-43.38671875 1.4846875 -43.7734375 1.969375 -44.171875 2.46875 C-51.12899662 11.42346099 -55.03423311 19.47300183 -54 31 C-51.94470602 40.5320327 -47.03248908 48.44789099 -39 54 C-38.40058594 54.41507812 -37.80117188 54.83015625 -37.18359375 55.2578125 C-29.75653494 59.41463993 -20.2327532 59.24047565 -12 58 C-1.61137517 54.6592136 4.89888964 48.45047814 10 39 C13.28430792 32.27117401 13.20415311 23.40074511 11.2421875 16.23046875 C10.29276469 14.0363302 9.24931493 12.03655447 8 10 C7.34 8.906875 6.68 7.81375 6 6.6875 C4.1577481 4.21197401 2.25812042 2.09682611 0 0 Z " fill="#29AC6E" transform="translate(552,272)"/>
<path d="M0 0 C0 31.02 0 62.04 0 94 C-11.323125 94.061875 -22.64625 94.12375 -34.3125 94.1875 C-37.88747314 94.21481201 -41.46244629 94.24212402 -45.14575195 94.27026367 C-49.51208496 94.28381348 -49.51208496 94.28381348 -51.55632019 94.28633118 C-52.98371688 94.29093722 -54.41110191 94.30148711 -55.83842468 94.31672668 C-58.00096914 94.33866151 -60.16280055 94.34171897 -62.32543945 94.34057617 C-63.54455521 94.34723801 -64.76367096 94.35389984 -66.01972961 94.36076355 C-69 94 -69 94 -70.91716003 92.47871399 C-71.27449722 91.99073837 -71.63183441 91.50276276 -72 91 C-72.55218201 91.48797562 -73.10436401 91.97595123 -73.67327881 92.47871399 C-76.45698536 94.29879189 -77.92927715 94.36459264 -81.22753906 94.34057617 C-82.26831604 94.34034958 -83.30909302 94.34012299 -84.38140869 94.33988953 C-85.49820007 94.32440567 -86.61499146 94.30892181 -87.765625 94.29296875 C-88.91415955 94.28872391 -90.06269409 94.28447906 -91.24603271 94.28010559 C-94.9142603 94.26331333 -98.58193847 94.22565898 -102.25 94.1875 C-104.73697123 94.17245392 -107.22395108 94.15876539 -109.7109375 94.14648438 C-115.80747912 94.11340796 -121.90370031 94.06320256 -128 94 C-128.14928955 95.10085938 -128.2985791 96.20171875 -128.45239258 97.3359375 C-129.79794891 106.33910713 -133.61848155 113.8244878 -140.84765625 119.43359375 C-149.23562327 125.0533649 -157.00318303 126.50451226 -167 126 C-167.66 123.36 -168.32 120.72 -169 118 C-168.02160156 117.72027344 -167.04320312 117.44054687 -166.03515625 117.15234375 C-156.68797148 114.35117083 -147.81686312 111.45963407 -142.7890625 102.44921875 C-139.90226963 95.5386461 -140.44353266 88.00557732 -140.53344727 80.6472168 C-140.56208505 78.0994163 -140.55409691 75.5537478 -140.54101562 73.00585938 C-140.55570357 63.74584157 -141.20445963 54.90796009 -143.04286194 45.81886292 C-143.81564444 41.90122283 -144.13730317 38.86041014 -143 35 C-139.12315913 33.80712589 -136.08378077 33 -132 33 C-129.59073666 49.83311271 -128 65.90575784 -128 83 C-114.8 82.67 -101.6 82.34 -88 82 C-89.98 79.56625 -91.96 77.1325 -94 74.625 C-99.02895432 68.43949333 -104.0364483 62.23817977 -109 56 C-104.37924891 46.11072897 -95.05390051 38.91319481 -85 35 C-73.50362924 32.00779391 -60.66473441 33.33039937 -50.4453125 39.3125 C-44.18170552 43.63498916 -37.33943943 48.51379381 -35 56 C-35.57331055 56.68606323 -35.57331055 56.68606323 -36.15820312 57.38598633 C-37.94236709 59.5252118 -39.72117452 61.66883378 -41.5 63.8125 C-42.10070312 64.53115234 -42.70140625 65.24980469 -43.3203125 65.99023438 C-48.16804337 71.84361155 -52.50473343 77.81900846 -57 84 C-41.82 84 -26.64 84 -11 84 C-11 56.94 -11 29.88 -11 2 C-4 0 -4 0 0 0 Z " fill="#E2AA28" transform="translate(692,812)"/>
<path d="M0 0 C1.79050781 -0.02126953 1.79050781 -0.02126953 3.6171875 -0.04296875 C11.20457868 0.45553468 16.98995224 3.72409302 22.1875 9.1875 C31.28089913 20.37571358 33.125 35.3539606 33.125 49.1875 C46.655 49.1875 60.185 49.1875 74.125 49.1875 C74.125 33.6775 74.125 18.1675 74.125 2.1875 C81.125 0.1875 81.125 0.1875 85.125 0.1875 C85.125 19.9875 85.125 39.7875 85.125 60.1875 C64.335 60.1875 43.545 60.1875 22.125 60.1875 C21.135 49.7925 21.135 49.7925 20.125 39.1875 C17.32679788 24.0278546 17.32679788 24.0278546 8.125 12.1875 C1.03261028 9.82337009 -5.86511328 10.8611823 -12.609375 13.8515625 C-17.08513672 16.49071855 -19.68752152 20.13640081 -22.25 24.5625 C-22.86259218 27.13538717 -22.93778094 29.21881547 -22.9140625 31.8515625 C-22.90842285 32.66318848 -22.9027832 33.47481445 -22.89697266 34.31103516 C-22.88972168 34.93026855 -22.8824707 35.54950195 -22.875 36.1875 C-22.17415283 36.16655273 -21.47330566 36.14560547 -20.7512207 36.12402344 C-17.56346081 36.04066952 -14.37593048 35.98877861 -11.1875 35.9375 C-10.08470703 35.90398438 -8.98191406 35.87046875 -7.84570312 35.8359375 C0.36043471 35.73676967 0.36043471 35.73676967 4.33203125 38.078125 C8.69001067 43.20515961 7.50515169 49.77922872 7.125 56.1875 C5.82626896 63.36871869 3.21291538 69.09958462 -2 74.3125 C-11.84259312 80.73158247 -21.42747461 81.4372037 -32.875 81.5625 C-34.13957031 81.59988281 -35.40414062 81.63726563 -36.70703125 81.67578125 C-47.66054772 81.77730715 -56.18587777 79.37380257 -64.8125 72.5 C-71.18439251 66.23237482 -74.04117342 60.504281 -74.3605957 51.56982422 C-74.43479342 39.29827621 -71.78347954 30.42611489 -64.875 20.1875 C-63.875 19.1875 -63.875 19.1875 -61.80859375 19.08984375 C-60.57302734 19.10724609 -60.57302734 19.10724609 -59.3125 19.125 C-58.48621094 19.13402344 -57.65992188 19.14304687 -56.80859375 19.15234375 C-55.85146484 19.16974609 -55.85146484 19.16974609 -54.875 19.1875 C-55.29652344 20.20070313 -55.71804688 21.21390625 -56.15234375 22.2578125 C-56.70605437 23.6092418 -57.2594216 24.96081183 -57.8125 26.3125 C-58.09029297 26.97765625 -58.36808594 27.6428125 -58.65429688 28.328125 C-62.61584751 38.06494826 -63.21178122 48.17715633 -59.875 58.1875 C-57.07767993 63.57493124 -54.1928017 65.62355989 -48.875 68.1875 C-37.54626143 71.70946336 -21.62254265 70.79508735 -10.94921875 65.76953125 C-7.41885992 63.07688469 -6.07922685 60.43000989 -5.36328125 56.07421875 C-5.30527344 55.01847656 -5.24726563 53.96273437 -5.1875 52.875 C-5.12175781 51.80636719 -5.05601562 50.73773437 -4.98828125 49.63671875 C-4.95089844 48.82847656 -4.91351563 48.02023437 -4.875 47.1875 C-5.53508057 47.20321045 -6.19516113 47.2189209 -6.87524414 47.23510742 C-9.89590727 47.29786688 -12.9164327 47.33661983 -15.9375 47.375 C-17.49500977 47.41270508 -17.49500977 47.41270508 -19.08398438 47.45117188 C-25.13368347 47.50878806 -29.57757824 47.22194548 -34.875 44.1875 C-37.45577284 39.02595433 -36.60060045 30.99453718 -35.19140625 25.54296875 C-30.73681152 14.98872149 -23.0306752 6.90215381 -12.76953125 1.94921875 C-8.47278985 0.22166293 -4.63468159 0.02491764 0 0 Z " fill="#E2AB2A" transform="translate(433.875,845.8125)"/>
<path d="M0 0 C0.80824219 -0.06316406 1.61648438 -0.12632812 2.44921875 -0.19140625 C10.76010351 1.99686218 17.66512112 11.82809831 23.5 17.75 C25.24107892 19.51670186 26.98449183 21.28110727 28.73046875 23.04296875 C29.49125732 23.81535889 30.2520459 24.58774902 31.03588867 25.38354492 C33.30761695 27.62795558 33.30761695 27.62795558 35.97387695 29.6574707 C38.56343133 31.76690726 40.085637 33.43220026 40.75390625 36.76171875 C40.99528291 41.72161972 40.69246439 44.80070077 37.375 48.625 C36.04150392 49.95849608 34.68577468 51.27000618 33.3125 52.5625 C32.590625 53.305 31.86875 54.0475 31.125 54.8125 C27.04524166 59.00558496 22.81064519 62.92981493 18.36328125 66.7265625 C15.18142646 69.57508012 12.24563292 72.65887447 9.29296875 75.7421875 C6.23986864 78.54838997 2.77399673 79.22017309 -1.34204102 79.15161133 C-10.20170449 76.92632061 -18.86047716 65.70414732 -25.23413086 59.27661133 C-26.77296372 57.72687355 -28.32245518 56.18835417 -29.87304688 54.65039062 C-30.86522662 53.65689201 -31.85678726 52.66277465 -32.84765625 51.66796875 C-33.73074463 50.78262451 -34.61383301 49.89728027 -35.52368164 48.98510742 C-38.42321037 45.7387999 -39.52787548 43.60005939 -40.1875 39.3125 C-39.30449733 32.68997994 -35.03017645 28.57919706 -30.05078125 24.39453125 C-25.24742939 20.25035454 -20.82165692 15.77033806 -16.375 11.25 C-14.79792246 9.64742403 -13.21859404 8.04705913 -11.63671875 6.44921875 C-10.94924561 5.75014404 -10.26177246 5.05106934 -9.5534668 4.33081055 C-6.43399445 1.37459725 -4.23678572 0.2061858 0 0 Z " fill="#FDFEFD" transform="translate(823.6875,699.4375)"/>
<path d="M0 0 C9.83957357 3.5016276 16.93918843 11.06282213 22 20 C27.55687902 31.79142622 29.12360596 43.71313087 25 56.25 C19.39019466 70.13348471 10.33124915 79.02731149 -3.375 84.9375 C-14.89686968 89.51829724 -27.38280521 89.29364211 -39 85 C-52.26026772 78.75793126 -61.75505542 69.3595709 -66.875 55.5 C-70.07710098 43.25099928 -69.06929152 30.12447357 -63 19 C-58.9333455 12.50142556 -52.27364462 3.67013874 -44.73046875 1.28125 C-44.15941406 1.1884375 -43.58835937 1.095625 -43 1 C-43.38671875 1.4846875 -43.7734375 1.969375 -44.171875 2.46875 C-51.12899662 11.42346099 -55.03423311 19.47300183 -54 31 C-51.94470602 40.5320327 -47.03248908 48.44789099 -39 54 C-38.10087891 54.62261719 -38.10087891 54.62261719 -37.18359375 55.2578125 C-29.75653494 59.41463993 -20.2327532 59.24047565 -12 58 C-1.61137517 54.6592136 4.89888964 48.45047814 10 39 C13.28430792 32.27117401 13.20415311 23.40074511 11.2421875 16.23046875 C10.29276469 14.0363302 9.24931493 12.03655447 8 10 C7.34 8.906875 6.68 7.81375 6 6.6875 C4.1577481 4.21197401 2.25812042 2.09682611 0 0 Z " fill="#E2AA27" transform="translate(552,272)"/>
<path d="M0 0 C8.56096472 2.90516492 15.08941973 9.62412002 19.21728516 17.51074219 C24.02321097 27.38111592 25.89770436 36.61367656 23.09375 47.52734375 C18.53602027 60.0464924 11.10823315 68.77649998 -0.69140625 74.96484375 C-10.45592523 79.34318137 -22.93811678 79.58368443 -33 76 C-44.34351453 71.04536147 -51.62469662 64.08395892 -57 53 C-57.35320312 52.37609375 -57.70640625 51.7521875 -58.0703125 51.109375 C-61.87792861 42.47024601 -61.05852845 30.9498077 -58.0625 22.25 C-54.08575472 13.01223477 -47.38817396 6.35415359 -39 1 C-38.34 1.33 -37.68 1.66 -37 2 C-38.0828125 2.928125 -38.0828125 2.928125 -39.1875 3.875 C-44.44425736 9.2368925 -47.29197126 15.49282758 -47.5625 23 C-47.13866104 31.69985242 -44.12741534 38.91754625 -38.1015625 45.23828125 C-31.57430194 50.71001826 -24.43094368 52.82312894 -15.98828125 52.41796875 C-7.94180866 51.29251441 -0.23244918 48.44517829 5 42 C9.75770946 34.05809436 11.87131052 27.27323344 11 18 C9.32567924 11.69608147 5.81378829 7.21459937 1.390625 2.53125 C0 1 0 1 0 0 Z " fill="#E2AA27" transform="translate(242,126)"/>
<path d="M0 0 C0.66 0.33 1.32 0.66 2 1 C0.9171875 1.99 0.9171875 1.99 -0.1875 3 C-6.12109005 8.91668523 -9.13630252 15.19890743 -9.375 23.5625 C-9.29262931 31.55245661 -7.51616313 37.03285073 -2.203125 43.02734375 C4.19543574 49.08038221 10.60167578 52.17850874 19.4375 52.5 C27.76658979 52.20843326 35.25633382 49.74816898 41.39453125 43.9453125 C47.06169296 37.07853262 49.97209082 29.72847021 49.44921875 20.81640625 C48.11987189 12.48197942 43.76558056 6.94373052 38 1 C43.10239062 1 46.33729779 4.69076988 50 8 C58.75158264 17.39984802 62.36691638 27.13543168 62.2109375 39.87890625 C61.46158032 50.96661716 56.15757912 60.31332555 48.1875 67.875 C38.79111048 75.85067793 28.15829953 78.50848047 15.98046875 78.24609375 C4.50927575 77.29893103 -5.40991003 71.47454942 -13.24609375 63.2109375 C-21.16442183 53.2292589 -23.39587639 41.4411196 -22 29 C-19.08235595 16.012235 -10.81211132 7.24735527 0 0 Z " fill="#E2AA27" transform="translate(837,126)"/>
<path d="M0 0 C0 31.35 0 62.7 0 95 C-3.96 95 -7.92 95 -12 95 C-12 64.64 -12 34.28 -12 3 C-2 0 -2 0 0 0 Z " fill="#E3AE32" transform="translate(721,811)"/>
<path d="M0 0 C5.07249751 2.77551751 9.0016681 6.46109981 11.3125 11.8125 C12.12978685 17.74622645 11.36889179 22.58705597 8.3125 27.8125 C3.43685857 32.91866821 -0.35178752 34.95416222 -7.5 35.125 C-12.75540476 35.07428439 -15.71364201 34.48831864 -19.6875 30.8125 C-24.26068412 25.8582172 -26.14296096 21.62845188 -25.9375 14.796875 C-25.22613817 9.15044044 -21.85811489 5.40116862 -17.6875 1.8125 C-11.72896473 -2.02744495 -6.54108981 -2.10645265 0 0 Z " fill="#E2AA28" transform="translate(271.6875,713.1875)"/>
<path d="M0 0 C2.2334895 1.5475489 4.04521434 3.09951394 6 5 C3.58772554 9.38819893 0.59868978 12.95020411 -2.6875 16.6875 C-7.60795176 22.34916406 -12.37331004 28.09416635 -17 34 C-20.52600079 32.8246664 -21.15378216 31.84254254 -23.375 28.9375 C-24.06335938 28.05191406 -24.75171875 27.16632812 -25.4609375 26.25390625 C-25.85249023 25.74875488 -26.24404297 25.24360352 -26.64746094 24.72314453 C-29.38457688 21.23603906 -32.19922138 17.81100283 -35 14.375 C-36.14592098 12.96621712 -37.29176107 11.55736844 -38.4375 10.1484375 C-39.29161341 9.09891499 -40.14575861 8.04941834 -41 7 C-38.25342103 1.06231787 -32.92571365 -1.56965111 -27.1875 -4.375 C-17.11645087 -6.34971551 -9.00022418 -4.91162676 0 0 Z " fill="#FEFDFA" transform="translate(638,861)"/>
<path d="M0 0 C3.17568542 1.65233922 5.37696485 3.75392971 7 7 C7.43281664 11.23660902 7.44858706 14.91394711 5.8125 18.875 C2.52140491 22.73352527 0.13652312 23.87371965 -4.9375 24.4375 C-9.22902681 24.25126393 -11.7525341 22.86985359 -15 20 C-17.64201025 15.94891762 -18.70236884 12.8162435 -18 8 C-13.53648545 -0.00354332 -8.74711323 -1.26028308 0 0 Z " fill="#E2AA29" transform="translate(777,843)"/>
<path d="M0 0 C3.20325127 1.29493137 4.60978077 2.55775154 6.875 5.125 C8.50026146 9.27844596 8.14727358 12.72873149 7 17 C4.87982166 20.43615111 2.90377836 22.80717883 -1 24 C-6.31237628 24.42161717 -9.73772763 24.53159711 -14 21 C-17.12904608 17.33146322 -17.57021124 13.89897405 -17.4296875 9.22265625 C-16.69387346 5.41649091 -14.77545759 3.64329294 -12 1 C-8.31064308 -0.84467846 -4.03564658 -0.35009552 0 0 Z " fill="#E2AA29" transform="translate(313,843)"/>
<path d="M0 0 C3.8425303 0.72047443 5.45767292 1.57152696 8 4.5625 C8.63008105 7.51674795 8.39281877 9.46905222 8 12.5625 C6.45661909 14.73726401 5.36334727 15.38082637 3 16.5625 C-1.05263598 17.10285146 -2.53730231 16.90449395 -5.875 14.4375 C-8 11.5625 -8 11.5625 -8.625 8.5625 C-7.58351809 3.56338683 -5.03644185 0.94433285 0 0 Z " fill="#E3AC2D" transform="translate(389,937.4375)"/>
<path d="M0 0 C3.8425303 0.72047443 5.45767292 1.57152696 8 4.5625 C8.71730941 7.3854596 8.71730941 9.7395404 8 12.5625 C5.45767292 15.55347304 3.8425303 16.40452557 0 17.125 C-4.10389613 16.35551948 -5.53959272 14.89128632 -8 11.5625 C-8.625 8.5625 -8.625 8.5625 -8 5.5625 C-5.53959272 2.23371368 -4.10389613 0.76948052 0 0 Z " fill="#E3AC2C" transform="translate(413,937.4375)"/>
<path d="M0 0 C2.4375 1.5 2.4375 1.5 4 4 C4.60984064 6.80756825 4.66017005 9.19858274 4 12 C1.42627616 15.02791041 -0.15246594 15.86162709 -4.0625 16.5 C-7 16 -7 16 -9.375 14.5 C-11.65700312 10.98922596 -11.81004807 8.07529338 -11 4 C-8.16250305 -0.53999512 -5.10870514 -0.72981502 0 0 Z " fill="#E2AB2A" transform="translate(505,918)"/>
<path d="M0 0 C0.66 0.33 1.32 0.66 2 1 C0.35 2.32 -1.3 3.64 -3 5 C-3 4.01 -3 3.02 -3 2 C-2.01 1.34 -1.02 0.68 0 0 Z M-6 4 C-5.34 4.33 -4.68 4.66 -4 5 C-6.97 7.97 -9.94 10.94 -13 14 C-13 11 -13 11 -11.46875 9.17578125 C-10.8190625 8.56089844 -10.169375 7.94601562 -9.5 7.3125 C-8.8503125 6.68988281 -8.200625 6.06726563 -7.53125 5.42578125 C-6.77328125 4.72001953 -6.77328125 4.72001953 -6 4 Z " fill="#E4B139" transform="translate(507,273)"/>
<path d="M0 0 C0.66 0.33 1.32 0.66 2 1 C-2.75 5.875 -2.75 5.875 -5 7 C-5.66 6.34 -6.32 5.68 -7 5 C-4.69 3.35 -2.38 1.7 0 0 Z " fill="#E9BD58" transform="translate(837,126)"/>
<path d="M0 0 C0.66 0.33 1.32 0.66 2 1 C-2.39453125 5.00390625 -2.39453125 5.00390625 -4 6 C-4.99 5.67 -5.98 5.34 -7 5 C-4.69 3.35 -2.38 1.7 0 0 Z " fill="#E6B74A" transform="translate(203,127)"/>
</svg>
